<svg width="70" height="70" viewBox="0 0 70 70" fill="none" xmlns="http://www.w3.org/2000/svg">
<path d="M51.7866 21.1619C51.7866 11.9055 44.2562 4.375 34.9998 4.375C25.7434 4.375 18.2129 11.9055 18.2129 21.1619V33.9041H51.7855L51.7866 21.1619ZM34.9998 30.065C30.1337 30.065 26.1743 26.1056 26.1743 21.2395C26.1743 16.3734 30.1337 12.4141 34.9998 12.4141C39.8659 12.4141 43.8252 16.3734 43.8252 21.2395C43.8252 26.1056 39.8659 30.065 34.9998 30.065Z" fill="#00998A"/>
<path d="M25.1045 65.6252H44.8948C48.6956 65.6252 51.7865 62.5343 51.7865 58.7346V36.0918H18.2139V58.7346C18.2139 62.5343 21.3048 65.6252 25.1056 65.6252H25.1045ZM20.6398 38.4926C20.6398 37.8888 21.1287 37.3988 21.7336 37.3988C22.3384 37.3988 22.8273 37.8888 22.8273 38.4926V40.8923C22.8273 41.496 22.3384 41.986 21.7336 41.986C21.1287 41.986 20.6398 41.496 20.6398 40.8923V38.4926ZM20.6398 46.396C20.6398 45.7923 21.1287 45.3023 21.7336 45.3023C22.3384 45.3023 22.8273 45.7923 22.8273 46.396V59.3088C22.8273 59.9126 22.3384 60.4026 21.7336 60.4026C21.1287 60.4026 20.6398 59.9126 20.6398 59.3088V46.396Z" fill="#00998A"/>
<path d="M35.0003 27.8765C38.6663 27.8765 41.6382 24.9046 41.6382 21.2386C41.6382 17.5725 38.6663 14.6006 35.0003 14.6006C31.3342 14.6006 28.3623 17.5725 28.3623 21.2386C28.3623 24.9046 31.3342 27.8765 35.0003 27.8765Z" fill="#00998A"/>
</svg>
