<svg width="70" height="70" viewBox="0 0 70 70" fill="none" xmlns="http://www.w3.org/2000/svg">
<path d="M49.7063 35.8641C49.8715 35.7 49.9623 35.4791 49.9623 35.2472C49.9623 35.0153 49.8715 34.7955 49.7074 34.6325L44.8074 29.7314C44.6423 29.5673 44.4235 29.4766 44.1916 29.4766C43.9598 29.4766 43.7399 29.5673 43.5759 29.7314L38.6759 34.6314C38.5107 34.7955 38.4199 35.0153 38.4199 35.2472C38.4199 35.4791 38.5107 35.7 38.6759 35.8641L43.5759 40.763C43.9051 41.0911 44.4793 41.0933 44.8085 40.763L49.7085 35.8641H49.7063Z" fill="#00998A"/>
<path d="M31.3275 35.8641C31.4927 35.7 31.5835 35.4791 31.5835 35.2472C31.5835 35.0153 31.4927 34.7955 31.3286 34.6325L26.4286 29.7314C26.2635 29.5673 26.0447 29.4766 25.8118 29.4766C25.5788 29.4766 25.36 29.5673 25.196 29.7314L20.296 34.6314C20.1308 34.7955 20.04 35.0153 20.04 35.2472C20.04 35.4791 20.1308 35.7 20.296 35.8641L25.196 40.763C25.5263 41.0933 26.0994 41.0911 26.4286 40.763L31.3275 35.8641Z" fill="#00998A"/>
<path d="M16.2939 43.2065H53.7068V51.8811H16.2939V43.2065Z" fill="#00998A"/>
<path d="M59.6665 25.5162C59.6665 21.4376 56.3481 18.1191 52.2695 18.1191H17.731C13.6524 18.1191 10.334 21.4376 10.334 25.5162V30.251C13.7038 30.7793 16.2938 33.6952 16.2938 37.2116V41.019H22.3554L18.7471 37.4107C18.1696 36.8332 17.8502 36.0643 17.8502 35.2462C17.8502 34.428 18.1696 33.6602 18.7471 33.0816L23.646 28.1827C24.8021 27.0266 26.8179 27.0277 27.9729 28.1827L32.8718 33.0827C33.4493 33.6591 33.7687 34.428 33.7687 35.2462C33.7687 36.0643 33.4493 36.8321 32.8718 37.4107L29.2635 41.019H40.7337L37.1254 37.4107C36.5479 36.8332 36.2285 36.0643 36.2285 35.2462C36.2285 34.428 36.5479 33.6602 37.1254 33.0816L42.0243 28.1827C43.1782 27.0266 45.194 27.0255 46.3512 28.1827L51.2501 33.0827C51.8276 33.6591 52.1469 34.428 52.1469 35.2462C52.1469 36.0643 51.8276 36.8321 51.2501 37.4107L47.6418 41.019H53.7034V37.2116C53.7034 33.6952 56.2923 30.7793 59.6632 30.251V25.5162H59.6665Z" fill="#00998A"/>
<path d="M9.24109 32.3442C6.55813 32.3442 4.375 34.5274 4.375 37.2103V51.8797H14.1061V37.2103C14.1061 34.5274 11.923 32.3442 9.24109 32.3442Z" fill="#00998A"/>
<path d="M60.7596 32.3442C58.0767 32.3442 55.8936 34.5274 55.8936 37.2103V51.8797H65.6246V37.2103C65.6246 34.5274 63.4415 32.3442 60.7596 32.3442Z" fill="#00998A"/>
</svg>
