<svg width="70" height="70" viewBox="0 0 70 70" fill="none" xmlns="http://www.w3.org/2000/svg">
<path d="M62.8399 4.375H44.5907C44.0329 4.375 43.5801 4.82781 43.5801 5.38453V14.3106C43.5801 14.8673 44.0329 15.3202 44.5907 15.3202H47.8162C48.421 15.3202 48.9099 15.8091 48.9099 16.4139V16.6731L49.9424 15.6406C50.148 15.435 50.4248 15.3202 50.7157 15.3202H62.8388C63.3955 15.3202 63.8484 14.8673 63.8484 14.3106V5.38453C63.8484 4.82781 63.3966 4.375 62.8399 4.375ZM47.6871 10.5438C47.6324 10.675 47.5559 10.7953 47.4465 10.8938C47.348 11.0031 47.2277 11.0797 47.0965 11.1344C46.9652 11.1891 46.823 11.2219 46.6809 11.2219C46.5277 11.2219 46.3855 11.1891 46.2543 11.1344C46.123 11.0797 46.0027 11.0031 45.9043 10.8938C45.8059 10.7953 45.7184 10.675 45.6637 10.5438C45.609 10.4125 45.5871 10.2703 45.5871 10.1281C45.5871 9.98594 45.6101 9.84375 45.6637 9.70156C45.7184 9.57031 45.8059 9.45 45.9043 9.35156C46.309 8.94688 47.0418 8.94688 47.4465 9.35156C47.5559 9.45 47.6324 9.57031 47.6871 9.70156C47.7418 9.84375 47.7746 9.98594 47.7746 10.1281C47.7746 10.2703 47.7418 10.4125 47.6871 10.5438ZM52.5215 10.5438C52.4668 10.675 52.3793 10.7953 52.2809 10.8938C52.073 11.1005 51.7996 11.2219 51.5043 11.2219C51.209 11.2219 50.9345 11.1016 50.7387 10.8938C50.532 10.6969 50.4105 10.4125 50.4105 10.1281C50.4105 9.98594 50.4434 9.84375 50.498 9.70156C50.5527 9.57031 50.6293 9.45 50.7387 9.35156C50.7824 9.29688 50.8371 9.25313 50.9027 9.22031C50.9574 9.17656 51.022 9.14375 51.0887 9.11094C51.1543 9.08797 51.2199 9.06719 51.2954 9.05625C51.6454 8.97969 52.0282 9.09891 52.2798 9.35156C52.3782 9.45 52.4548 9.57031 52.5204 9.70156C52.5751 9.84375 52.597 9.98594 52.597 10.1281C52.597 10.2703 52.5751 10.4125 52.5215 10.5438ZM57.1043 10.8938C57.0059 11.0031 56.8855 11.0797 56.7543 11.1344C56.623 11.1891 56.4809 11.2219 56.3387 11.2219C56.1965 11.2219 56.0543 11.1891 55.9121 11.1344C55.7809 11.0797 55.6605 11.0031 55.5621 10.8938C55.3543 10.6859 55.2449 10.4125 55.2449 10.1281C55.2449 9.98594 55.2679 9.84375 55.3215 9.70156C55.3871 9.57031 55.4637 9.45 55.5621 9.35156C55.6605 9.25313 55.7809 9.16562 55.9121 9.11094C56.3168 8.94687 56.798 9.04422 57.1043 9.35156C57.2137 9.45 57.2902 9.57031 57.3449 9.70156C57.3996 9.84375 57.4324 9.98594 57.4324 10.1281C57.4324 10.4125 57.3121 10.6859 57.1043 10.8938ZM61.9387 10.8938C61.7309 11.1005 61.4574 11.2219 61.1621 11.2219C60.8777 11.2219 60.6043 11.1016 60.3965 10.8938C60.1898 10.6859 60.0684 10.4125 60.0684 10.1281C60.0684 9.83281 60.1887 9.55938 60.3965 9.35156C60.648 9.1 61.0309 8.97969 61.3809 9.05625C61.4465 9.06719 61.523 9.08797 61.5876 9.11094C61.6543 9.14266 61.7079 9.17656 61.7735 9.22031C61.8293 9.25313 61.884 9.29688 61.9376 9.35156C62.1443 9.55938 62.2548 9.83281 62.2548 10.1281C62.2548 10.4125 62.1454 10.6859 61.9387 10.8938Z" fill="#00998A"/>
<path d="M30.5505 27.4311L29.9358 23.4443L29.3135 27.4311H30.5505Z" fill="#00998A"/>
<path d="M29.9323 9.23682C27.2799 9.23682 25.123 11.3948 25.123 14.0471C25.123 16.6995 27.281 18.8563 29.9323 18.8563C32.5835 18.8563 34.7415 16.6984 34.7415 14.0471C34.7415 11.3959 32.5835 9.23682 29.9323 9.23682Z" fill="#00998A"/>
<path d="M29.9323 48.9912C33.2885 48.9912 36.0092 46.2704 36.0092 42.9143C36.0092 39.5581 33.2885 36.8374 29.9323 36.8374C26.5762 36.8374 23.8555 39.5581 23.8555 42.9143C23.8555 46.2704 26.5762 48.9912 29.9323 48.9912Z" fill="#00998A"/>
<path d="M17.7588 63.3511V65.625H42.1057V63.3511C42.1057 56.6387 36.6446 51.1787 29.9322 51.1787C23.2199 51.1787 17.7588 56.6387 17.7588 63.3511Z" fill="#00998A"/>
<path d="M32.7634 27.4311H39.1389C38.65 26.1251 37.8866 24.9297 36.888 23.9223C35.4913 22.5245 33.7205 21.6014 31.8086 21.2339L32.7634 27.4311Z" fill="#00998A"/>
<path d="M20.7393 27.4311H27.0994L28.0663 21.2339C24.7052 21.8858 21.9227 24.2417 20.7393 27.4311Z" fill="#00998A"/>
<path d="M25.3167 49.7666C23.1171 48.2802 21.669 45.7635 21.669 42.9154C21.669 38.3588 25.3768 34.651 29.9334 34.651C34.49 34.651 38.1978 38.3588 38.1978 42.9154C38.1978 45.7635 36.7486 48.2802 34.5501 49.7666C37.8347 50.8855 40.5811 53.1605 42.3136 56.1071H53.2182L43.0879 29.6187H16.7887L6.64746 56.1071H17.5543C19.2857 53.1594 22.0311 50.8855 25.3167 49.7666Z" fill="#00998A"/>
</svg>
