<svg width="40" height="40" viewBox="0 0 40 40" fill="none" xmlns="http://www.w3.org/2000/svg">
<path d="M1.875 17.5C15.2587 20.4744 16.25 33.75 16.25 33.75C16.25 33.75 17.2413 20.4744 30.625 17.5C17.2413 14.5256 16.25 1.25 16.25 1.25C16.25 1.25 15.2587 14.5256 1.875 17.5Z" fill="#1B1C21" fill-opacity="0.7"/>
<path d="M21.875 30C23.9831 30.4064 25.907 31.4735 27.3679 33.0468C28.8288 34.62 29.7507 36.6176 30 38.75C30.2493 36.6176 31.1712 34.62 32.6321 33.0468C34.093 31.4735 36.0169 30.4064 38.125 30C36.0169 29.5936 34.093 28.5265 32.6321 26.9532C31.1712 25.38 30.2493 23.3824 30 21.25C29.7507 23.3824 28.8288 25.38 27.3679 26.9532C25.907 28.5265 23.9831 29.5936 21.875 30Z" fill="#1B1C21" fill-opacity="0.7"/>
</svg>
