<svg width="173" height="44" viewBox="0 0 173 44" fill="none" xmlns="http://www.w3.org/2000/svg">
<g clip-path="url(#clip0_1005_617)">
<path d="M64.7143 32.159H61.9996L55.8481 13.7284H59.5589L63.4441 26.373L67.7776 13.7284H69.8446L74.2778 26.373L78.0882 13.7284H81.7991L75.6724 32.159H72.9827L68.8236 19.689L64.7143 32.159Z" fill="black"/>
<path d="M81.5996 25.3753C81.5996 23.3802 82.2721 21.7009 83.6169 20.3375C84.9948 18.9576 86.7299 18.2676 88.8221 18.2674C90.9304 18.2674 92.6572 18.9575 94.0022 20.3375C94.6681 20.9931 95.1928 21.7783 95.5441 22.6447C95.8953 23.5112 96.0656 24.4405 96.0445 25.3753C96.0445 27.404 95.3637 29.0999 94.0022 30.4631C92.6574 31.8265 90.9307 32.5082 88.8221 32.5081C86.7135 32.5081 84.9784 31.8264 83.6169 30.4631C82.2721 29.1 81.5996 27.4041 81.5996 25.3753ZM92.7819 25.3753C92.795 24.8408 92.7003 24.309 92.5035 23.8119C92.3066 23.3149 92.0117 22.8626 91.6363 22.4823C91.2716 22.1037 90.8344 21.8026 90.3509 21.5969C89.8674 21.3912 89.3474 21.2852 88.8221 21.2852C88.2967 21.2852 87.7768 21.3912 87.2933 21.5969C86.8097 21.8026 86.3726 22.1037 86.0078 22.4823C85.2718 23.2702 84.8622 24.3089 84.8622 25.3878C84.8622 26.4668 85.2718 27.5054 86.0078 28.2933C86.3726 28.6719 86.8098 28.973 87.2933 29.1787C87.7768 29.3844 88.2968 29.4904 88.8221 29.4904C89.3474 29.4904 89.8674 29.3844 90.3509 29.1787C90.8344 28.973 91.2716 28.6719 91.6363 28.2933C92.0134 27.9091 92.3091 27.4526 92.506 26.9512C92.7028 26.4498 92.7966 25.9139 92.7819 25.3753Z" fill="black"/>
<path d="M101.823 32.159H98.585V18.6166H101.698V20.4871C102.528 19.0074 103.782 18.2675 105.459 18.2675C106.01 18.2653 106.558 18.3581 107.078 18.5418L106.804 21.6594C106.297 21.4893 105.768 21.3968 105.235 21.385C104.189 21.385 103.358 21.7383 102.744 22.445C102.13 23.1519 101.822 24.1869 101.823 25.55L101.823 32.159Z" fill="black"/>
<path d="M121.771 32.159H117.736L113.104 26.2482L112.108 27.1461V32.159H108.87V13.2047H112.108V23.4549L117.313 18.6165H121.447L115.345 24.2032L121.771 32.159Z" fill="black"/>
<path d="M132.655 20.3375V18.6166H135.743V32.159H132.655V30.488C132.113 31.1265 131.437 31.6367 130.674 31.9817C129.912 32.3267 129.083 32.498 128.246 32.4831C126.304 32.4831 124.702 31.8014 123.44 30.438C122.178 29.0749 121.547 27.3707 121.547 25.3253C121.547 23.2803 122.178 21.601 123.44 20.2875C124.718 18.9575 126.32 18.2924 128.246 18.2924C129.973 18.2924 131.442 18.9741 132.655 20.3375ZM132.729 25.3753C132.754 24.2928 132.351 23.2442 131.608 22.4574C131.234 22.0782 130.788 21.7771 130.296 21.5716C129.805 21.3661 129.277 21.2603 128.744 21.2603C128.212 21.2603 127.684 21.3661 127.193 21.5716C126.701 21.7771 126.255 22.0782 125.88 22.4574C125.174 23.2697 124.785 24.3106 124.785 25.3879C124.785 26.4652 125.174 27.5061 125.88 28.3184C126.255 28.6976 126.701 28.9987 127.193 29.2042C127.684 29.4097 128.212 29.5155 128.744 29.5155C129.277 29.5155 129.805 29.4097 130.296 29.2042C130.788 28.9987 131.234 28.6976 131.608 28.3184C132.355 27.5235 132.757 26.4659 132.729 25.3753Z" fill="black"/>
<path d="M142.292 13.2047V32.159H139.055V13.2047H142.292Z" fill="black"/>
<path d="M151.606 27.7696L154.819 18.6166H158.355L152.876 33.0319C152.212 34.7111 151.444 35.9456 150.573 36.7354C149.697 37.5266 148.551 37.9507 147.372 37.92C146.343 37.92 145.513 37.7039 144.882 37.2716L145.405 34.5283C145.938 34.8028 146.525 34.9561 147.123 34.9772C148.219 34.9772 149.099 34.2456 149.763 32.7824L150.087 32.0342L144.185 18.6165H147.945L151.606 27.7696Z" fill="black"/>
<path d="M163.487 32.159H160.249V18.6166H163.437V20.512C163.811 19.8047 164.394 19.23 165.106 18.866C165.906 18.4543 166.796 18.2486 167.696 18.2674C168.388 18.2523 169.077 18.3745 169.723 18.627C170.368 18.8796 170.957 19.2574 171.456 19.7389C172.485 20.7201 173 22.1084 173 23.9039V32.159H169.738V24.8017C169.738 23.688 169.472 22.8151 168.941 22.183C168.676 21.87 168.343 21.6218 167.967 21.4575C167.592 21.2933 167.184 21.2173 166.774 21.2354C166.33 21.2217 165.889 21.3049 165.48 21.4794C165.072 21.6538 164.706 21.9152 164.408 22.2454C163.794 22.9188 163.487 23.7876 163.487 24.8516L163.487 32.159Z" fill="black"/>
<path d="M42.625 0.020286C42.625 -0.0648316 42.6388 0.153988 42.625 0.020286V0.020286Z" fill="#00998A"/>
<path d="M42.6249 10.8055C41.3133 11.5208 39.557 12.447 38.2598 13.1874C36.2802 14.317 34.3434 15.5131 32.6403 17.0498C30.1744 19.275 28.4111 21.9972 27.0258 24.9873C26.6593 25.7785 26.3083 26.5769 25.9456 27.3822C24.6316 26.0091 24.2104 24.4259 24.6078 22.6069C25.1145 20.3547 26.0729 18.229 27.4247 16.3588C29.0969 13.9946 31.2741 12.1781 33.6882 10.6267C36.4476 8.85321 39.6702 7.25651 42.6249 5.84819C42.614 4.12579 42.624 1.7428 42.6249 0.0202942C40.5882 1.73329 38.2892 2.9191 36.0084 4.13549C33.3582 5.54893 30.7598 7.04814 28.436 8.9712C25.7592 11.1864 23.5747 13.8083 22.1142 16.9797C21.4003 18.5296 20.8105 20.1368 20.1587 21.7156C19.3065 23.7799 18.0763 25.6104 16.6885 27.3532C16.1073 26.1233 15.5548 24.9049 14.9611 23.7068C13.3585 20.4728 11.1558 17.731 8.2259 15.6031C5.66612 13.7439 2.85073 12.319 0.000353365 10.7808C0.00603994 14.8436 -0.0147441 19.382 0.0263835 23.4445C0.0546394 26.5589 0.823623 29.6219 2.26962 32.3794C4.23346 36.1998 7.32287 39.3232 11.1191 41.3261C14.2416 43.0115 17.5565 43.9643 21.1203 43.983C24.3102 44.0025 27.4626 43.2935 30.3378 41.9099C34.167 40.0895 37.3056 37.4634 39.5342 33.824C41.5645 30.5746 42.6391 26.8178 42.6347 22.9848L42.6249 10.8055ZM38.1781 24.6848C38.0351 27.0929 37.2722 29.4229 35.9636 31.4483C33.1907 35.8676 29.2028 38.55 24.08 39.4114C18.6318 40.3274 13.8551 38.7193 9.73232 35.1277C8.08385 33.703 6.75595 31.9443 5.83632 29.9677C4.91669 27.9912 4.42625 25.8418 4.3974 23.6614C4.36202 21.9634 4.40046 18.3283 4.40046 18.3283C7.1364 20.0227 10.0267 22.8478 11.4623 25.7191C13.1285 29.0516 14.8812 32.4898 16.5516 35.8202L21.3011 28.1578L26.0509 35.8438C26.0509 35.8438 30.192 27.5256 31.648 24.8217C33.093 22.1381 35.5985 19.842 38.2528 18.3334C38.2528 18.3334 38.2595 23.1325 38.1781 24.6848Z" fill="#00998A"/>
<path d="M9.67755 11.1317C12.3578 12.9774 14.6785 15.167 16.2499 18.0644C17.0568 19.5522 17.7324 21.0884 17.9146 22.8471C18.1311 22.4438 18.382 22.0549 18.5579 21.6345C19.1749 20.1584 19.7604 18.6692 20.3734 17.1913C20.4189 17.0976 20.4412 16.9943 20.4383 16.8901C20.4353 16.7859 20.4074 16.684 20.3567 16.593C19.5565 15.0283 18.585 13.5575 17.4601 12.2079C15.5222 9.83601 13.1479 7.97396 10.5618 6.37963C9.02976 5.43507 7.44196 4.58019 5.86966 3.70226C3.90353 2.60448 1.77771 1.49823 0.00816699 0.0847168C0.00816699 1.97208 0.0049833 3.8353 0.017698 5.69841C2.69852 7.01764 7.20905 9.43193 9.67755 11.1317Z" fill="#00998A"/>
<path d="M0.15625 5.76875L0.208591 5.79538C0.192992 5.78748 0.174912 5.77834 0.15625 5.76875Z" fill="#00998A"/>
</g>
<defs>
<clipPath id="clip0_1005_617">
<rect width="173" height="44" fill="white"/>
</clipPath>
</defs>
</svg>
