<svg width="336" height="347" viewBox="0 0 336 347" fill="none" xmlns="http://www.w3.org/2000/svg">
<g clip-path="url(#clip0_1005_333)">
<path d="M335.83 0.159983C335.83 -0.511285 335.939 1.2144 335.83 0.159983V0.159983Z" fill="white" fill-opacity="0.04"/>
<path d="M335.829 85.2163C325.496 90.8571 311.659 98.1619 301.438 104C285.842 112.909 270.582 122.342 257.164 134.461C237.736 152.01 223.843 173.478 212.929 197.059C210.041 203.299 207.276 209.596 204.418 215.946C194.065 205.117 190.747 192.631 193.878 178.287C197.87 160.524 205.421 143.76 216.072 129.012C229.246 110.366 246.4 96.0411 265.42 83.8064C287.161 69.8198 312.55 57.2276 335.829 46.1211C335.744 32.5376 335.822 13.7444 335.829 0.160156C319.783 13.6695 301.67 23.0212 283.701 32.6141C262.82 43.761 242.348 55.5843 224.039 70.7502C202.95 88.2201 185.739 108.898 174.231 133.908C168.607 146.132 163.96 158.806 158.825 171.258C152.111 187.537 142.418 201.973 131.484 215.717C126.905 206.018 122.552 196.41 117.874 186.961C105.248 161.456 87.8931 139.833 64.8096 123.051C44.6418 108.389 22.4601 97.1519 0.00278407 85.0211C0.047587 117.062 -0.116165 152.854 0.207868 184.892C0.430488 209.454 6.48909 233.609 17.8817 255.356C33.3543 285.485 57.6949 310.117 87.604 325.913C112.206 339.205 138.323 346.719 166.401 346.866C191.534 347.019 216.37 341.428 239.023 330.517C269.192 316.161 293.921 295.45 311.479 266.749C327.475 241.122 335.941 211.495 335.907 181.266L335.829 85.2163ZM300.795 194.673C299.668 213.665 293.657 232.04 283.347 248.013C261.5 282.865 230.08 304.02 189.72 310.812C146.795 318.037 109.16 305.355 76.6783 277.03C63.6904 265.794 53.2283 251.924 45.9827 236.337C38.7372 220.749 34.8732 203.798 34.6459 186.603C34.3671 173.211 34.67 144.544 34.67 144.544C56.2257 157.907 78.9979 180.187 90.3083 202.83C103.436 229.112 117.244 256.227 130.406 282.491L167.825 222.063L205.248 282.678C205.248 282.678 237.874 217.077 249.346 195.753C260.73 174.589 280.471 156.482 301.383 144.584C301.383 144.584 301.436 182.432 300.795 194.673Z" fill="white" fill-opacity="0.04"/>
<path d="M76.2476 87.7893C97.3646 102.345 115.649 119.613 128.029 142.463C134.387 154.196 139.709 166.311 141.145 180.181C142.851 177 144.828 173.933 146.213 170.618C151.075 158.977 155.688 147.232 160.517 135.578C160.876 134.838 161.051 134.023 161.028 133.202C161.005 132.38 160.785 131.576 160.386 130.858C154.081 118.519 146.427 106.92 137.564 96.2762C122.296 77.5707 103.59 62.8859 83.2143 50.3124C71.1439 42.8633 58.6341 36.1214 46.2464 29.1978C30.7558 20.5402 14.0071 11.8159 0.0652929 0.668457C0.0652929 15.5529 0.0402096 30.247 0.140385 44.9401C21.2618 55.344 56.7991 74.384 76.2476 87.7893Z" fill="white" fill-opacity="0.04"/>
<path d="M1.23047 45.4941L1.64285 45.7041C1.51995 45.6418 1.3775 45.5697 1.23047 45.4941Z" fill="white" fill-opacity="0.04"/>
</g>
<defs>
<clipPath id="clip0_1005_333">
<rect width="336" height="347" fill="white"/>
</clipPath>
</defs>
</svg>
