<svg width="157" height="44" viewBox="0 0 157 44" fill="none" xmlns="http://www.w3.org/2000/svg">
<g clip-path="url(#clip0_1626_1282)">
<path d="M39.1277 11.9093C37.8757 12.584 36.3399 13.4444 35.0878 14.1191C33.2586 15.1751 31.5272 16.2311 29.8936 17.6782C27.5851 19.6924 26.0493 22.1956 24.6994 24.9822C24.4157 25.7547 24.0244 26.4196 23.7408 27.192C22.4887 25.9404 22.1072 24.5031 22.4887 22.7724C22.968 20.6604 23.8386 18.7342 25.0809 17.0036C26.6167 14.7938 28.6415 13.1609 30.8522 11.7138C33.3564 10.0809 36.3301 8.63378 39.0299 7.29422V1.91644C37.2007 3.45155 35.0878 4.60533 32.9749 5.66133C30.5686 6.91289 28.1622 8.35022 26.0493 10.0809C23.5451 12.0951 21.6279 14.5004 20.278 17.3849C19.603 18.8222 19.1237 20.2693 18.4487 21.7067C17.676 23.6329 16.5217 25.2658 15.2794 26.8987C14.7023 25.7449 14.2229 24.6889 13.7436 23.5351C12.3057 20.5529 10.2808 18.0596 7.59079 16.1333C5.28226 14.4027 2.69005 13.1511 -0.00976562 11.7138V23.3396C-0.00976562 26.224 0.763007 29.0107 2.00531 31.5138C3.83453 34.9751 6.62238 37.8596 10.0852 39.688C12.9709 41.2231 15.9543 42.0933 19.2215 42.0933C22.4887 42.0933 25.0907 41.4187 27.6829 40.1671C31.2435 38.5342 34.1292 36.1289 36.1443 32.7653C37.9735 29.7831 39.0299 26.3218 39.0299 22.8702V11.7236L39.1277 11.9191V11.9093ZM35.0878 24.6889C34.99 26.8987 34.227 29.0107 33.0727 30.9369C30.5686 34.9751 26.8221 37.4684 22.205 38.2409C17.2064 39.1013 12.785 37.5662 9.02874 34.3004C7.49298 32.9511 6.33871 31.416 5.46812 29.5876C4.60731 27.7591 4.21603 25.8427 4.11821 23.8187V18.92C6.62238 20.4551 9.31241 23.056 10.5645 25.7449C12.1003 28.8249 13.7338 31.9929 15.2794 34.9751L19.603 27.9547L23.9266 34.9751C23.9266 34.9751 27.7709 27.3778 29.023 24.8844C30.3729 22.3813 32.6815 20.2693 35.078 18.9298V24.7964V24.6987L35.0878 24.6889Z" fill="#00998A"/>
<path d="M8.93092 12.1929C11.4351 13.9236 13.548 15.9378 14.9859 18.5387C15.7587 19.888 16.3358 21.3253 16.5217 22.9582C16.7173 22.5769 16.9032 22.1858 17.0988 21.8045C17.676 20.4551 18.1553 19.1156 18.7324 17.7662V17.1893C17.9596 15.752 17.0988 14.4027 16.0424 13.1511C14.2132 10.9413 12.1003 9.30845 9.69391 7.77334C8.25597 6.9129 6.80824 6.14046 5.3703 5.27023C3.54108 4.31201 1.62382 3.25601 -0.00976562 1.90668V7.09868C2.49441 8.35023 6.62238 10.56 8.8331 12.0951L8.93092 12.1929Z" fill="#00998A"/>
<path d="M52.773 27.368H50.1808L44.2236 9.67999H47.7843L51.5307 21.7947L55.6685 9.67999H57.6836L61.9191 21.7947L65.5776 9.67999H69.1382L63.2691 27.368H60.6768L56.6369 15.3511L52.6948 27.368H52.7926H52.773Z" fill="black"/>
<path d="M69.0303 20.8365C69.0303 18.9102 69.7052 17.2773 70.9573 16.0258C72.3072 14.6765 73.9408 14.0116 75.9559 14.0116C77.971 14.0116 79.6143 14.6862 80.9545 16.0258C81.6294 16.7005 82.1087 17.3751 82.3924 18.2356C82.7739 19.096 82.8717 19.9662 82.8717 20.8267C82.8717 22.7529 82.1968 24.3858 80.9447 25.7253C79.6926 27.0649 77.9612 27.6516 75.9461 27.6516C73.931 27.6516 72.2877 26.9769 70.9475 25.7253C69.6955 24.376 69.0205 22.7431 69.0205 20.8267L69.0303 20.8365ZM79.8002 20.8365C79.8002 20.3573 79.8002 19.7805 79.5165 19.3013C79.3209 18.8222 79.0372 18.4409 78.6557 18.0498C78.2742 17.6685 77.8829 17.3751 77.4036 17.1893C76.9243 16.9938 76.445 16.9058 75.9657 16.9058C75.4864 16.9058 75.0071 17.0036 74.5277 17.1893C74.0484 17.3849 73.6669 17.6685 73.2756 18.0498C72.6007 18.8222 72.2192 19.7805 72.2192 20.8365C72.2192 21.8925 72.6007 22.8507 73.2756 23.6231C73.6571 24.0045 74.0484 24.2978 74.5277 24.4836C75.0071 24.6791 75.4864 24.7671 75.9657 24.7671C76.445 24.7671 76.9243 24.6693 77.4036 24.4836C77.8829 24.2978 78.2644 24.0045 78.6557 23.6231C79.047 23.2418 79.3307 22.8507 79.5165 22.3716C79.7122 21.8925 79.8002 21.4133 79.8002 20.8365Z" fill="black"/>
<path d="M88.4475 27.368H85.3662V14.3929H88.3497V16.2213C89.1225 14.784 90.3648 14.1093 92.0081 14.1093C93.6515 14.1093 93.0646 14.1093 93.5439 14.3929L93.2602 17.3751C92.7809 17.1795 92.3016 17.0915 91.7245 17.0915C90.7658 17.0915 89.8952 17.4729 89.3181 18.1475C88.741 18.8222 88.4573 19.7804 88.4573 21.1298V27.4755V27.3778L88.4475 27.368Z" fill="black"/>
<path d="M107.581 27.368H103.737L99.3153 21.6969L98.3567 22.5573V27.368H95.2754V9.11288H98.3567V19.008L103.355 14.3929H107.297L101.428 19.7707L107.581 27.456V27.3582V27.368Z" fill="black"/>
<path d="M118.068 15.928V14.2951H121.051V27.2702H118.068V25.6373C117.588 26.2142 116.913 26.6933 116.141 27.0747C115.368 27.3582 114.605 27.5538 113.832 27.5538C112.003 27.5538 110.467 26.8791 109.215 25.6276C107.963 24.2782 107.386 22.6453 107.386 20.7289C107.386 18.8124 107.963 17.1698 109.215 15.9182C110.467 14.6667 112.003 13.992 113.832 13.992C115.661 13.992 116.913 14.6667 118.068 15.9182V15.928ZM118.165 20.8364C118.165 19.7804 117.784 18.8222 117.109 18.0498C116.727 17.6684 116.336 17.3751 115.857 17.1893C115.378 16.9938 114.898 16.9058 114.321 16.9058C113.744 16.9058 113.265 17.0036 112.785 17.1893C112.306 17.3849 111.925 17.6684 111.533 18.0498C110.858 18.8222 110.477 19.8782 110.477 20.8364C110.477 21.7947 110.858 22.8507 111.533 23.6231C111.915 24.0044 112.306 24.2978 112.785 24.4836C113.265 24.6791 113.744 24.7671 114.321 24.7671C114.898 24.7671 115.378 24.6693 115.857 24.4836C116.336 24.288 116.718 24.0044 117.109 23.6231C117.784 22.8507 118.165 21.7947 118.165 20.8364Z" fill="black"/>
<path d="M127.39 9.11288V27.3778H124.309V9.11288H127.39Z" fill="black"/>
<path d="M136.34 23.144L139.422 14.3049H142.787L137.495 28.1502C136.82 29.7831 136.145 30.9369 135.284 31.7093C134.423 32.4818 133.357 32.8631 132.203 32.8631C131.048 32.8631 130.373 32.6675 129.796 32.2862L130.276 29.6951C130.755 29.9786 131.332 30.0764 131.909 30.0764C132.966 30.0764 133.836 29.4018 134.413 27.9644L134.697 27.2898L129.023 14.4124H132.682L136.243 23.2515L136.34 23.1538V23.144Z" fill="black"/>
<path d="M147.775 27.368H144.693V14.3929H147.775V16.2213C148.156 15.5466 148.733 14.9698 149.408 14.6862C150.181 14.3049 151.042 14.1093 151.912 14.1093C152.783 14.1093 153.262 14.2071 153.839 14.4906C154.417 14.7742 154.994 15.0675 155.473 15.5466C156.432 16.5049 156.911 17.8542 156.911 19.5849V27.5635H153.742V20.4551C153.742 19.3991 153.458 18.5289 152.969 17.952C152.685 17.6684 152.392 17.3751 152.01 17.2773C151.629 17.0818 151.237 17.0818 150.856 17.0818C150.474 17.0818 149.995 17.0818 149.604 17.2773C149.222 17.4729 148.831 17.6586 148.547 18.0498C147.97 18.7244 147.687 19.4871 147.687 20.5529V27.5733L147.784 27.3778L147.775 27.368Z" fill="black"/>
<path d="M53.3796 37.9182C53.6535 38.2409 53.7806 38.6124 53.7806 39.0524C53.7806 39.4924 53.585 40.0889 53.1937 40.4311C52.8025 40.7831 52.2351 40.9493 51.4917 40.9493H48.8701V33.8898H51.4525C52.1568 33.8898 52.6949 34.0462 53.0666 34.3591C53.4383 34.672 53.6144 35.1022 53.6144 35.6498C53.6144 36.1973 53.497 36.4711 53.2524 36.7547C53.0079 37.0382 52.6949 37.2142 52.3134 37.2924C52.7438 37.3902 53.0959 37.5955 53.3698 37.9182H53.3796ZM49.7896 36.9893H51.3156C51.7656 36.9893 52.1079 36.8818 52.3427 36.6764C52.5775 36.4711 52.6949 36.1778 52.6949 35.8062C52.6949 35.4347 52.5775 35.1609 52.3427 34.9555C52.1079 34.7502 51.7558 34.6427 51.2667 34.6427H49.7798V36.9893H49.7896ZM52.4503 39.864C52.7144 39.6391 52.8416 39.336 52.8416 38.9351C52.8416 38.5342 52.7046 38.2311 52.4405 38.0062C52.1666 37.7813 51.7949 37.6738 51.3156 37.6738H49.7896V40.1964H51.3352C51.8145 40.1964 52.1862 40.0889 52.4503 39.864Z" fill="black"/>
<path d="M57.1949 33.8995V38.1333C57.1949 38.8275 57.3514 39.336 57.6546 39.6684C57.9579 40.0009 58.3883 40.1671 58.9263 40.1671C59.4643 40.1671 59.8751 40.0009 60.1784 39.6684C60.4816 39.336 60.6283 38.8275 60.6283 38.1333V33.8995H61.538V38.1333C61.538 39.0915 61.3033 39.8151 60.824 40.304C60.3447 40.7929 59.7088 41.0275 58.9067 41.0275C58.1046 41.0275 57.4786 40.7831 56.9992 40.304C56.5199 39.8151 56.2852 39.1013 56.2852 38.1333V33.8995H57.1949Z" fill="black"/>
<path d="M66.1055 37.3902L69.3335 40.9591H68.2086L65.2642 37.664V40.9591H64.3545V33.8995H65.2642V37.1751L68.2184 33.8995H69.3335L66.1055 37.3902Z" fill="black"/>
<path d="M72.5523 33.8995V40.9591H71.6426V33.8995H72.5523Z" fill="black"/>
<path d="M79.7416 33.8995V34.6426H77.7461V40.9591H76.8363V34.6426H74.8408V33.8995H79.7416Z" fill="black"/>
<path d="M91.4506 39.2871C91.1669 39.8151 90.7365 40.2258 90.179 40.5191C89.6214 40.8124 88.9562 40.9591 88.1737 40.9591H85.9336V33.8995H88.1737C88.9562 33.8995 89.6214 34.0462 90.179 34.3298C90.7365 34.6133 91.1571 35.024 91.4506 35.552C91.7343 36.08 91.881 36.7058 91.881 37.4293C91.881 38.1529 91.7343 38.7689 91.4506 39.2969V39.2871ZM90.2181 39.424C90.7072 38.9546 90.9517 38.28 90.9517 37.4195C90.9517 36.5591 90.7072 35.8844 90.2279 35.4151C89.7388 34.936 89.0345 34.7013 88.1052 34.7013H86.8433V40.1378H88.1052C89.0247 40.1378 89.729 39.9031 90.2181 39.424Z" fill="black"/>
<path d="M98.6504 39.3262H95.5397L94.9528 40.9591H93.9746L96.5864 34.0267H97.6233L100.225 40.9591H99.2471L98.6602 39.3262H98.6504ZM98.396 38.6124L97.1048 35.0436L95.8136 38.6124H98.396Z" fill="black"/>
<path d="M109.626 34.0169V40.9591H108.716V35.4249L106.506 40.9591H105.694L103.473 35.4444V40.9591H102.563V34.0169H103.659L106.124 39.8444L108.55 34.0169H109.646H109.626Z" fill="black"/>
<path d="M116.63 39.3262H113.519L112.932 40.9591H111.954L114.566 34.0267H115.603L118.205 40.9591H117.227L116.64 39.3262H116.63ZM116.366 38.6124L115.075 35.0436L113.783 38.6124H116.366Z" fill="black"/>
<path d="M126.02 40.9591H125.11L121.442 35.376V40.9591H120.532V33.8995H121.442L125.11 39.4924V33.8995H126.02V40.9591Z" fill="black"/>
<path d="M133.112 40.0595C132.955 40.3431 132.711 40.5778 132.378 40.7635C132.056 40.9395 131.645 41.0373 131.165 41.0373C130.686 41.0373 130.285 40.9493 129.913 40.7831C129.551 40.6169 129.258 40.3822 129.043 40.0791C128.827 39.7858 128.7 39.4435 128.671 39.0622H129.639C129.659 39.2578 129.727 39.4533 129.845 39.6489C129.962 39.8347 130.128 40.0009 130.344 40.1182C130.559 40.2453 130.823 40.304 131.126 40.304C131.429 40.304 131.831 40.1964 132.046 39.9813C132.261 39.7662 132.369 39.4924 132.369 39.16C132.369 38.8275 132.29 38.6418 132.144 38.456C131.997 38.2702 131.811 38.1333 131.586 38.0258C131.361 37.9182 131.068 37.8107 130.686 37.6933C130.236 37.5467 129.884 37.4098 129.61 37.2729C129.336 37.1458 129.111 36.9502 128.916 36.6862C128.73 36.4222 128.632 36.08 128.632 35.6498C128.632 35.2195 128.72 34.9555 128.896 34.6818C129.072 34.3982 129.326 34.1831 129.659 34.0267C129.992 33.8702 130.383 33.792 130.823 33.792C131.518 33.792 132.065 33.9582 132.476 34.3004C132.887 34.6329 133.122 35.0631 133.19 35.5911H132.212C132.163 35.3075 132.016 35.0631 131.782 34.848C131.547 34.6329 131.234 34.5253 130.833 34.5253C130.432 34.5253 130.168 34.6231 129.952 34.8089C129.737 34.9947 129.62 35.2684 129.62 35.6107C129.62 35.9529 129.688 36.1093 129.835 36.2755C129.982 36.4418 130.158 36.5787 130.373 36.6764C130.588 36.7742 130.882 36.8818 131.253 36.9991C131.703 37.1458 132.075 37.2827 132.349 37.4195C132.623 37.5564 132.858 37.752 133.053 38.0258C133.249 38.2995 133.347 38.6515 133.347 39.1013C133.347 39.5511 133.268 39.7467 133.102 40.0302L133.112 40.0595Z" fill="black"/>
<path d="M140.116 39.3262H137.006L136.419 40.9591H135.44L138.052 34.0267H139.089L141.691 40.9591H140.713L140.126 39.3262H140.116ZM139.852 38.6124L138.561 35.0436L137.27 38.6124H139.852Z" fill="black"/>
<path d="M147.755 40.9591L145.916 38.0746H144.928V40.9591H144.019V33.8995H146.347C147.149 33.8995 147.745 34.0951 148.147 34.4764C148.548 34.8578 148.743 35.3662 148.743 36.0018C148.743 36.6373 148.587 37.0382 148.264 37.3902C147.941 37.7422 147.481 37.9573 146.875 38.0453L148.802 40.9591H147.765H147.755ZM144.918 37.4098H146.249C147.286 37.4098 147.804 36.96 147.804 36.0506C147.804 35.1413 147.286 34.6915 146.249 34.6915H144.918V37.4195V37.4098Z" fill="black"/>
<path d="M155.395 39.3262H152.285L151.698 40.9591H150.72L153.331 34.0267H154.368L156.97 40.9591H155.992L155.405 39.3262H155.395ZM155.131 38.6124L153.84 35.0436L152.549 38.6124H155.131Z" fill="black"/>
</g>
<defs>
<clipPath id="clip0_1626_1282">
<rect width="157" height="44" fill="white"/>
</clipPath>
</defs>
</svg>
