<svg width="239" height="61" viewBox="0 0 239 61" fill="none" xmlns="http://www.w3.org/2000/svg">
<g clip-path="url(#clip0_1005_365)">
<path d="M89.4029 44.5842H85.6525L77.1543 19.0327H82.2808L87.6482 36.5627L93.6348 19.0327H96.4905L102.615 36.5627L107.879 19.0327H113.006L104.542 44.5842H100.826L95.08 27.2963L89.4029 44.5842Z" fill="white"/>
<path d="M112.73 35.1793C112.73 32.4133 113.659 30.0852 115.517 28.1951C117.421 26.282 119.818 25.3254 122.708 25.3252C125.621 25.3252 128.007 26.2818 129.865 28.1951C130.785 29.104 131.51 30.1926 131.995 31.3938C132.48 32.5949 132.715 33.8833 132.686 35.1793C132.686 37.9919 131.746 40.343 129.865 42.2328C128.007 44.1231 125.621 45.0681 122.708 45.068C119.795 45.0679 117.398 44.1228 115.517 42.2328C113.659 40.343 112.73 37.9919 112.73 35.1793ZM128.179 35.1793C128.197 34.4382 128.066 33.7011 127.794 33.0119C127.522 32.3228 127.115 31.6958 126.596 31.1686C126.092 30.6437 125.488 30.2262 124.82 29.941C124.152 29.6559 123.434 29.5089 122.708 29.5089C121.983 29.5089 121.264 29.6559 120.596 29.941C119.928 30.2262 119.324 30.6437 118.82 31.1686C117.804 32.2609 117.238 33.7008 117.238 35.1967C117.238 36.6925 117.804 38.1324 118.82 39.2248C119.324 39.7496 119.928 40.1671 120.596 40.4522C121.264 40.7373 121.983 40.8843 122.708 40.8843C123.434 40.8843 124.152 40.7373 124.82 40.4522C125.488 40.1671 126.092 39.7496 126.596 39.2248C127.117 38.692 127.526 38.0592 127.798 37.3641C128.07 36.669 128.199 35.9259 128.179 35.1793Z" fill="white"/>
<path d="M140.668 44.584H136.195V25.8092H140.496V28.4025C141.643 26.3511 143.375 25.3254 145.691 25.3252C146.453 25.3223 147.21 25.4509 147.928 25.7056L147.549 30.0277C146.85 29.7919 146.119 29.6637 145.382 29.6473C143.937 29.6473 142.79 30.1372 141.941 31.1168C141.092 32.0968 140.668 33.5317 140.668 35.4215L140.668 44.584Z" fill="white"/>
<path d="M168.228 44.5842H162.654L156.254 36.3897L154.878 37.6345V44.5842H150.405V18.3066H154.878V32.5172L162.069 25.8094H167.78L159.351 33.5545L168.228 44.5842Z" fill="white"/>
<path d="M183.262 28.1951V25.8093H187.529V44.584H183.262V42.2674C182.514 43.1526 181.58 43.8599 180.527 44.3382C179.473 44.8165 178.328 45.0539 177.172 45.0334C174.489 45.0334 172.275 44.0883 170.532 42.1981C168.788 40.3083 167.917 37.9457 167.917 35.11C167.917 32.2748 168.789 29.9467 170.532 28.1258C172.298 26.2818 174.511 25.3599 177.172 25.3599C179.558 25.3599 181.588 26.3049 183.262 28.1951ZM183.365 35.1793C183.4 33.6786 182.843 32.2248 181.817 31.134C181.3 30.6083 180.683 30.1909 180.004 29.906C179.325 29.6211 178.596 29.4745 177.86 29.4745C177.125 29.4745 176.396 29.6211 175.717 29.906C175.038 30.1909 174.421 30.6083 173.904 31.134C172.928 32.2602 172.39 33.7033 172.39 35.1968C172.39 36.6903 172.928 38.1334 173.904 39.2595C174.421 39.7853 175.038 40.2027 175.717 40.4875C176.396 40.7724 177.125 40.9191 177.86 40.9191C178.596 40.9191 179.325 40.7724 180.004 40.4875C180.683 40.2027 181.3 39.7853 181.817 39.2595C182.848 38.1575 183.404 36.6913 183.365 35.1793Z" fill="white"/>
<path d="M196.577 18.3066V44.5842H192.104V18.3066H196.577Z" fill="white"/>
<path d="M209.446 38.4985L213.884 25.8091H218.77L211.2 45.794C210.282 48.122 209.222 49.8334 208.018 50.9284C206.808 52.0253 205.225 52.6133 203.596 52.5707C202.174 52.5707 201.027 52.2711 200.156 51.6718L200.878 47.8685C201.614 48.2491 202.425 48.4616 203.252 48.4909C204.766 48.4909 205.982 47.4766 206.899 45.4482L207.347 44.4109L199.192 25.8091H204.388L209.446 38.4985Z" fill="white"/>
<path d="M225.857 44.5842H221.384V25.8095H225.788V28.4373C226.305 27.4567 227.11 26.6599 228.093 26.1553C229.199 25.5845 230.428 25.2993 231.671 25.3255C232.628 25.3045 233.58 25.4739 234.472 25.824C235.363 26.1741 236.177 26.698 236.867 27.3655C238.288 28.7258 239 30.6505 239 33.1397V44.5843H234.493V34.3844C234.493 32.8403 234.126 31.6302 233.392 30.754C233.026 30.3199 232.566 29.9759 232.047 29.7481C231.528 29.5204 230.964 29.4151 230.398 29.4402C229.785 29.4212 229.175 29.5366 228.611 29.7784C228.046 30.0202 227.541 30.3826 227.13 30.8405C226.281 31.774 225.856 32.9784 225.857 34.4536L225.857 44.5842Z" fill="white"/>
<path d="M58.8867 0.0281238C58.8867 -0.0898801 58.9058 0.213483 58.8867 0.0281238V0.0281238Z" fill="white"/>
<path d="M58.8864 14.9805C57.0745 15.9722 54.6481 17.2563 52.856 18.2827C50.1212 19.8488 47.4455 21.507 45.0927 23.6375C41.686 26.7223 39.2501 30.4963 37.3363 34.6417C36.8299 35.7386 36.345 36.8455 35.8439 37.9618C34.0286 36.0583 33.4468 33.8633 33.9958 31.3416C34.6958 28.2192 36.0197 25.2722 37.8873 22.6794C40.1975 19.4018 43.2053 16.8835 46.5403 14.7327C50.3525 12.274 54.8045 10.0604 58.8864 8.10791C58.8714 5.72003 58.8851 2.41634 58.8864 0.0283203C56.0727 2.40316 52.8967 4.04713 49.7458 5.73348C46.0845 7.69302 42.4947 9.77147 39.2844 12.4375C35.5864 15.5086 32.5686 19.1435 30.5508 23.5402C29.5646 25.689 28.7498 27.9171 27.8493 30.106C26.672 32.9678 24.9724 35.5055 23.0552 37.9217C22.2523 36.2166 21.489 34.5275 20.6688 32.8664C18.4547 28.3829 15.4117 24.5818 11.3641 21.6317C7.82777 19.0542 3.93829 17.0787 0.000488175 14.9462C0.00834419 20.5788 -0.020369 26.8707 0.0364488 32.5027C0.0754844 36.8205 1.13784 41.0669 3.13548 44.8898C5.84854 50.1863 10.1166 54.5164 15.361 57.2931C19.6748 59.6298 24.2544 60.9507 29.1778 60.9767C33.5846 61.0036 37.9396 60.0207 41.9118 58.1026C47.2018 55.5789 51.5378 51.938 54.6167 46.8926C57.4215 42.3876 58.906 37.1795 58.8999 31.8654L58.8864 14.9805ZM52.7432 34.2223C52.5456 37.5608 51.4916 40.7911 49.6838 43.599C45.8531 49.7257 40.3437 53.4445 33.2666 54.6387C25.7399 55.9086 19.1408 53.6792 13.4452 48.6999C11.1679 46.7248 9.33337 44.2866 8.06289 41.5464C6.79242 38.8062 6.11488 35.8263 6.07502 32.8035C6.02614 30.4494 6.07925 25.4099 6.07925 25.4099C9.85896 27.759 13.852 31.6756 15.8352 35.6562C18.1371 40.2763 20.5584 45.0429 22.8661 49.6601L29.4275 39.0371L35.9894 49.6928C35.9894 49.6928 41.7103 38.1607 43.7217 34.4121C45.718 30.6917 49.1795 27.5085 52.8463 25.4169C52.8463 25.4169 52.8557 32.0703 52.7432 34.2223Z" fill="white"/>
<path d="M13.3695 15.4329C17.0723 17.9916 20.2783 21.0272 22.4492 25.0441C23.564 27.1067 24.4973 29.2364 24.749 31.6746C25.0481 31.1155 25.3948 30.5763 25.6377 29.9935C26.4902 27.9471 27.2991 25.8825 28.1459 23.8337C28.2087 23.7037 28.2395 23.5605 28.2355 23.4161C28.2314 23.2716 28.1928 23.1303 28.1228 23.0041C27.0173 20.8349 25.6751 18.7959 24.1211 16.9248C21.4439 13.6365 18.1638 11.055 14.5911 8.84471C12.4746 7.53522 10.281 6.35003 8.10891 5.13291C5.39269 3.61098 2.45586 2.07732 0.0112319 0.117676C0.0112319 2.73425 0.00683365 5.31735 0.024399 7.90029C3.72796 9.72923 9.95927 13.0763 13.3695 15.4329Z" fill="white"/>
<path d="M0.21582 7.99756L0.288129 8.03447C0.26658 8.02352 0.241601 8.01085 0.21582 7.99756Z" fill="white"/>
</g>
<defs>
<clipPath id="clip0_1005_365">
<rect width="239" height="61" fill="white"/>
</clipPath>
</defs>
</svg>
