<svg width="157" height="44" viewBox="0 0 157 44" fill="none" xmlns="http://www.w3.org/2000/svg">
<g clip-path="url(#clip0_1626_1097)">
<path d="M39.1521 11.9093C37.8993 12.584 36.3626 13.4444 35.1097 14.1191C33.2793 15.1751 31.5468 16.2311 29.9122 17.6782C27.6023 19.6924 26.0655 22.1956 24.7148 24.9822C24.4309 25.7547 24.0394 26.4196 23.7556 27.192C22.5027 25.9404 22.121 24.5031 22.5027 22.7724C22.9823 20.6604 23.8535 18.7342 25.0965 17.0036C26.6333 14.7938 28.6594 13.1609 30.8715 11.7138C33.3772 10.0809 36.3528 8.63378 39.0543 7.29422V1.91644C37.2239 3.45155 35.1097 4.60533 32.9955 5.66133C30.5876 6.91289 28.1798 8.35022 26.0655 10.0809C23.5598 12.0951 21.6414 14.5004 20.2906 17.3849C19.6152 18.8222 19.1356 20.2693 18.4602 21.7067C17.687 23.6329 16.532 25.2658 15.2889 26.8987C14.7114 25.7449 14.2318 24.6889 13.7522 23.5351C12.3134 20.5529 10.2872 18.0596 7.59553 16.1333C5.28556 14.4027 2.69173 13.1511 -0.00976562 11.7138V23.3396C-0.00976562 26.224 0.763489 29.0107 2.00657 31.5138C3.83693 34.9751 6.62652 37.8596 10.0915 39.688C12.9789 41.2231 15.9643 42.0933 19.2335 42.0933C22.5027 42.0933 25.1063 41.4187 27.7001 40.1671C31.263 38.5342 34.1505 36.1289 36.1668 32.7653C37.9972 29.7831 39.0543 26.3218 39.0543 22.8702V11.7236L39.1521 11.9191V11.9093ZM35.1097 24.6889C35.0118 26.8987 34.2483 29.0107 33.0934 30.9369C30.5876 34.9751 26.8388 37.4684 22.2189 38.2409C17.2172 39.1013 12.793 37.5662 9.03437 34.3004C7.49765 32.9511 6.34267 31.416 5.47153 29.5876C4.61018 27.7591 4.21866 25.8427 4.12078 23.8187V18.92C6.62652 20.4551 9.31823 23.056 10.5711 25.7449C12.1078 28.8249 13.7424 31.9929 15.2889 34.9751L19.6152 27.9547L23.9415 34.9751C23.9415 34.9751 27.7882 27.3778 29.0411 24.8844C30.3919 22.3813 32.7018 20.2693 35.0999 18.9298V24.7964V24.6987L35.1097 24.6889Z" fill="#00998A"/>
<path d="M8.93649 12.1929C11.4422 13.9236 13.5564 15.9378 14.9953 18.5387C15.7685 19.888 16.346 21.3253 16.532 22.9582C16.7278 22.5769 16.9137 22.1858 17.1095 21.8045C17.687 20.4551 18.1666 19.1156 18.7441 17.7662V17.1893C17.9708 15.752 17.1095 14.4027 16.0524 13.1511C14.222 10.9413 12.1078 9.30845 9.69996 7.77334C8.26112 6.9129 6.81249 6.14046 5.37365 5.27023C3.54329 4.31201 1.62484 3.25601 -0.00976562 1.90668V7.09868C2.49597 8.35023 6.62652 10.56 8.83861 12.0951L8.93649 12.1929Z" fill="#00998A"/>
<path d="M52.8067 27.368H50.2129L44.252 9.67999H47.8148L51.5636 21.7947L55.7039 9.67999H57.7203L61.9585 21.7947L65.6192 9.67999H69.1821L63.3092 27.368H60.7154L56.673 15.3511L52.7284 27.368H52.8263H52.8067Z" fill="black"/>
<path d="M69.0742 20.8365C69.0742 18.9102 69.7496 17.2773 71.0025 16.0258C72.3532 14.6765 73.9878 14.0116 76.0042 14.0116C78.0205 14.0116 79.6649 14.6862 81.0058 16.0258C81.6812 16.7005 82.1608 17.3751 82.4447 18.2356C82.8264 19.096 82.9243 19.9662 82.9243 20.8267C82.9243 22.7529 82.2489 24.3858 80.9961 25.7253C79.7432 27.0649 78.0107 27.6516 75.9944 27.6516C73.978 27.6516 72.3337 26.9769 70.9927 25.7253C69.7398 24.376 69.0645 22.7431 69.0645 20.8267L69.0742 20.8365ZM79.8509 20.8365C79.8509 20.3573 79.8509 19.7805 79.567 19.3013C79.3713 18.8222 79.0874 18.4409 78.7057 18.0498C78.3239 17.6685 77.9324 17.3751 77.4528 17.1893C76.9732 16.9938 76.4936 16.9058 76.014 16.9058C75.5343 16.9058 75.0547 17.0036 74.5751 17.1893C74.0955 17.3849 73.7138 17.6685 73.3222 18.0498C72.6469 18.8222 72.2651 19.7805 72.2651 20.8365C72.2651 21.8925 72.6469 22.8507 73.3222 23.6231C73.704 24.0045 74.0955 24.2978 74.5751 24.4836C75.0547 24.6791 75.5343 24.7671 76.014 24.7671C76.4936 24.7671 76.9732 24.6693 77.4528 24.4836C77.9324 24.2978 78.3141 24.0045 78.7057 23.6231C79.0972 23.2418 79.381 22.8507 79.567 22.3716C79.7628 21.8925 79.8509 21.4133 79.8509 20.8365Z" fill="black"/>
<path d="M88.5032 27.368H85.4199V14.3929H88.4053V16.2213C89.1785 14.784 90.4216 14.1093 92.066 14.1093C93.7104 14.1093 93.1231 14.1093 93.6027 14.3929L93.3189 17.3751C92.8393 17.1795 92.3596 17.0915 91.7821 17.0915C90.8229 17.0915 89.9518 17.4729 89.3743 18.1475C88.7968 18.8222 88.5129 19.7804 88.5129 21.1298V27.4755V27.3778L88.5032 27.368Z" fill="black"/>
<path d="M107.649 27.368H103.803L99.3784 21.6969L98.4192 22.5573V27.368H95.3359V9.11288H98.4192V19.008L103.421 14.3929H107.365L101.493 19.7707L107.649 27.456V27.3582V27.368Z" fill="black"/>
<path d="M118.142 15.928V14.2951H121.127V27.2702H118.142V25.6373C117.662 26.2142 116.987 26.6933 116.213 27.0747C115.44 27.3582 114.677 27.5538 113.903 27.5538C112.073 27.5538 110.536 26.8791 109.283 25.6276C108.031 24.2782 107.453 22.6453 107.453 20.7289C107.453 18.8124 108.031 17.1698 109.283 15.9182C110.536 14.6667 112.073 13.992 113.903 13.992C115.734 13.992 116.987 14.6667 118.142 15.9182V15.928ZM118.24 20.8364C118.24 19.7804 117.858 18.8222 117.182 18.0498C116.801 17.6684 116.409 17.3751 115.93 17.1893C115.45 16.9938 114.97 16.9058 114.393 16.9058C113.815 16.9058 113.336 17.0036 112.856 17.1893C112.376 17.3849 111.995 17.6684 111.603 18.0498C110.928 18.8222 110.546 19.8782 110.546 20.8364C110.546 21.7947 110.928 22.8507 111.603 23.6231C111.985 24.0044 112.376 24.2978 112.856 24.4836C113.336 24.6791 113.815 24.7671 114.393 24.7671C114.97 24.7671 115.45 24.6693 115.93 24.4836C116.409 24.288 116.791 24.0044 117.182 23.6231C117.858 22.8507 118.24 21.7947 118.24 20.8364Z" fill="black"/>
<path d="M127.47 9.11288V27.3778H124.387V9.11288H127.47Z" fill="black"/>
<path d="M136.426 23.144L139.509 14.3049H142.876L137.581 28.1502C136.906 29.7831 136.23 30.9369 135.369 31.7093C134.507 32.4818 133.441 32.8631 132.286 32.8631C131.131 32.8631 130.455 32.6675 129.878 32.2862L130.357 29.6951C130.837 29.9786 131.414 30.0764 131.992 30.0764C133.049 30.0764 133.92 29.4018 134.498 27.9644L134.782 27.2898L129.104 14.4124H132.765L136.328 23.2515L136.426 23.1538V23.144Z" fill="black"/>
<path d="M147.868 27.368H144.785V14.3929H147.868V16.2213C148.25 15.5466 148.828 14.9698 149.503 14.6862C150.276 14.3049 151.138 14.1093 152.009 14.1093C152.88 14.1093 153.359 14.2071 153.937 14.4906C154.514 14.7742 155.092 15.0675 155.572 15.5466C156.531 16.5049 157.01 17.8542 157.01 19.5849V27.5635H153.839V20.4551C153.839 19.3991 153.555 18.5289 153.066 17.952C152.782 17.6684 152.488 17.3751 152.107 17.2773C151.725 17.0818 151.333 17.0818 150.952 17.0818C150.57 17.0818 150.09 17.0818 149.699 17.2773C149.317 17.4729 148.925 17.6586 148.642 18.0498C148.064 18.7244 147.78 19.4871 147.78 20.5529V27.5733L147.878 27.3778L147.868 27.368Z" fill="black"/>
<path d="M53.1099 32.8338C53.3057 33.0587 53.4035 33.3325 53.4035 33.6453C53.4035 33.9582 53.2665 34.3885 52.9827 34.6329C52.6988 34.8773 52.2975 35.0045 51.769 35.0045H49.8896V29.9493H51.7396C52.2486 29.9493 52.6303 30.0569 52.8946 30.2818C53.1589 30.5067 53.2861 30.8098 53.2861 31.2107C53.2861 31.6116 53.198 31.7973 53.0218 32.0027C52.8456 32.208 52.6205 32.3351 52.3464 32.3938C52.6597 32.4622 52.9141 32.6089 53.1001 32.8338H53.1099ZM50.5357 32.1689H51.6221C51.9451 32.1689 52.1898 32.0907 52.3562 31.944C52.5226 31.7973 52.6107 31.592 52.6107 31.3182C52.6107 31.0445 52.5226 30.8587 52.3562 30.712C52.1898 30.5653 51.9353 30.4871 51.5928 30.4871H50.5357V32.1689ZM52.4443 34.2222C52.6303 34.0658 52.7282 33.8409 52.7282 33.5573C52.7282 33.2738 52.6303 33.0587 52.4345 32.8925C52.2388 32.736 51.9745 32.648 51.6319 32.648H50.5454V34.4569H51.6515C51.9941 34.4569 52.2584 34.3787 52.4541 34.2222H52.4443Z" fill="black"/>
<path d="M55.8403 29.9591V32.9902C55.8403 33.4889 55.948 33.8507 56.1731 34.0951C56.3885 34.3298 56.7017 34.4471 57.0834 34.4471C57.4651 34.4471 57.7686 34.3298 57.9839 34.0853C58.1992 33.8507 58.3069 33.4791 58.3069 32.9902V29.9591H58.9627V32.9902C58.9627 33.6747 58.7963 34.1929 58.4537 34.5449C58.1111 34.8871 57.6511 35.0631 57.0834 35.0631C56.5157 35.0631 56.0557 34.8871 55.7131 34.5449C55.3705 34.2027 55.2041 33.6844 55.2041 32.9902V29.9591H55.8599H55.8403Z" fill="black"/>
<path d="M62.2226 32.4525L64.5326 35.0045H63.7299L61.6255 32.648V35.0045H60.9697V29.9493H61.6255V32.296L63.7397 29.9493H64.5326L62.2226 32.4525Z" fill="black"/>
<path d="M66.8423 29.9591V35.0142H66.1865V29.9591H66.8423Z" fill="black"/>
<path d="M71.9914 29.9591V30.4871H70.5624V35.0044H69.9066V30.4871H68.4775V29.9591H71.9817H71.9914Z" fill="black"/>
<path d="M80.3694 33.8116C80.1639 34.1929 79.8604 34.4862 79.4591 34.6916C79.0578 34.8969 78.5782 35.0045 78.0203 35.0045H76.415V29.9493H78.0203C78.5782 29.9493 79.0578 30.0471 79.4591 30.2525C79.8604 30.4578 80.1639 30.7511 80.3694 31.1227C80.5749 31.504 80.6826 31.9538 80.6826 32.4622C80.6826 32.9707 80.5749 33.4205 80.3694 33.8018V33.8116ZM79.4885 33.9093C79.8408 33.5671 80.017 33.088 80.017 32.472C80.017 31.856 79.8408 31.3769 79.4983 31.0347C79.1557 30.6925 78.6467 30.5262 77.9811 30.5262H77.0806V34.4178H77.9811C78.6369 34.4178 79.1459 34.2516 79.4983 33.9093H79.4885Z" fill="black"/>
<path d="M85.5282 33.8409H83.3063L82.8854 35.0045H82.1807L84.0502 30.0471H84.7843L86.6538 35.0045H85.9491L85.5282 33.8409ZM85.3422 33.3325L84.4123 30.7805L83.4825 33.3325H85.3324H85.3422Z" fill="black"/>
<path d="M93.3778 30.0374V35.0045H92.722V31.0445L91.1364 35.0045H90.5589L88.9634 31.0542V35.0045H88.3076V30.0374H89.0907L90.8525 34.2125L92.585 30.0374H93.368H93.3778Z" fill="black"/>
<path d="M98.3993 33.8409H96.1774L95.7565 35.0045H95.0518L96.9213 30.0471H97.6554L99.5249 35.0045H98.8201L98.3993 33.8409ZM98.2133 33.3325L97.2834 30.7805L96.3536 33.3325H98.2035H98.2133Z" fill="black"/>
<path d="M105.114 35.0045H104.458L101.835 31.0151V35.0045H101.179V29.9493H101.835L104.458 33.9485V29.9493H105.114V35.0045Z" fill="black"/>
<path d="M110.194 34.3591C110.076 34.5645 109.9 34.7307 109.665 34.8578C109.43 34.9849 109.137 35.0533 108.794 35.0533C108.452 35.0533 108.158 34.9947 107.903 34.8676C107.639 34.7502 107.434 34.5742 107.277 34.3689C107.12 34.1538 107.032 33.9093 107.013 33.6453H107.708C107.718 33.792 107.766 33.9289 107.855 34.0658C107.943 34.2027 108.06 34.3102 108.217 34.3982C108.373 34.4862 108.559 34.5351 108.784 34.5351C109.01 34.5351 109.293 34.4569 109.44 34.3102C109.597 34.1538 109.665 33.9582 109.665 33.7236C109.665 33.4889 109.616 33.352 109.509 33.2249C109.401 33.0978 109.264 32.9902 109.107 32.9218C108.951 32.8436 108.735 32.7653 108.461 32.6773C108.138 32.5698 107.884 32.472 107.688 32.384C107.492 32.2862 107.326 32.1493 107.189 31.9636C107.052 31.7778 106.983 31.5333 106.983 31.2302C106.983 30.9271 107.042 30.7316 107.169 30.536C107.297 30.3307 107.483 30.184 107.718 30.0667C107.952 29.9591 108.236 29.9005 108.549 29.9005C109.049 29.9005 109.44 30.0178 109.734 30.2622C110.027 30.5067 110.194 30.8098 110.243 31.1813H109.538C109.499 30.976 109.401 30.8 109.225 30.6533C109.058 30.4969 108.833 30.4285 108.54 30.4285C108.246 30.4285 108.07 30.4969 107.913 30.6338C107.757 30.7707 107.678 30.9662 107.678 31.2107C107.678 31.4551 107.727 31.5627 107.835 31.6898C107.933 31.8071 108.07 31.9049 108.217 31.9733C108.373 32.0418 108.579 32.12 108.853 32.208C109.176 32.3156 109.44 32.4133 109.636 32.5111C109.832 32.6089 109.998 32.7556 110.145 32.9413C110.282 33.1369 110.35 33.3911 110.35 33.7138C110.35 34.0365 110.292 34.1733 110.174 34.3787L110.194 34.3591Z" fill="black"/>
<path d="M115.215 33.8409H112.993L112.572 35.0045H111.867L113.737 30.0471H114.471L116.34 35.0045H115.636L115.215 33.8409ZM115.029 33.3325L114.099 30.7805L113.169 33.3325H115.019H115.029Z" fill="black"/>
<path d="M120.687 35.0045L119.365 32.9413H118.651V35.0045H117.995V29.9493H119.659C120.237 29.9493 120.667 30.0862 120.951 30.36C121.235 30.6338 121.382 30.9956 121.382 31.4551C121.382 31.9147 121.264 32.1982 121.039 32.4525C120.814 32.7067 120.481 32.8631 120.041 32.9218L121.421 35.0045H120.687ZM118.651 32.472H119.6C120.344 32.472 120.716 32.1493 120.716 31.4942C120.716 30.8391 120.344 30.5165 119.6 30.5165H118.651V32.4622V32.472Z" fill="black"/>
<path d="M126.148 33.8409H123.926L123.506 35.0045H122.801L124.67 30.0471H125.404L127.274 35.0045H126.569L126.148 33.8409ZM125.962 33.3325L125.032 30.7805L124.103 33.3325H125.953H125.962Z" fill="black"/>
</g>
<defs>
<clipPath id="clip0_1626_1097">
<rect width="157" height="44" fill="white"/>
</clipPath>
</defs>
</svg>
