<svg width="70" height="70" viewBox="0 0 70 70" fill="none" xmlns="http://www.w3.org/2000/svg">
<path d="M5.46875 20.7812H35.9516L42.1094 15.3125L35.9516 9.84375H5.46875C5.17894 9.84462 4.90124 9.96013 4.69631 10.1651C4.49138 10.37 4.37587 10.6477 4.375 10.9375V19.6875C4.37587 19.9773 4.49138 20.255 4.69631 20.4599C4.90124 20.6649 5.17894 20.7804 5.46875 20.7812Z" fill="white"/>
<path d="M44.8438 15.3125C44.8449 15.468 44.8123 15.6219 44.7481 15.7636C44.6839 15.9052 44.5896 16.0312 44.4719 16.1328L39.2438 20.7812H51.4062C52.2765 20.7812 53.1111 21.127 53.7264 21.7423C54.3418 22.3577 54.6875 23.1923 54.6875 24.0625C54.6875 24.9327 54.3418 25.7673 53.7264 26.3827C53.1111 26.998 52.2765 27.3438 51.4062 27.3438H34.0484L27.8906 32.8125L34.0484 38.2812H51.4062C55.1773 38.2812 58.7939 36.7832 61.4604 34.1167C64.127 31.4501 65.625 27.8335 65.625 24.0625C65.625 20.2915 64.127 16.6749 61.4604 14.0083C58.7939 11.3418 55.1773 9.84375 51.4062 9.84375H39.2438L44.4719 14.4922C44.5896 14.5938 44.6839 14.7198 44.7481 14.8614C44.8123 15.0031 44.845 15.157 44.8438 15.3125Z" fill="white"/>
<path d="M35.9516 44.8438H18.5938C17.7235 44.8438 16.8889 44.498 16.2736 43.8827C15.6582 43.2673 15.3125 42.4327 15.3125 41.5625C15.3125 40.6923 15.6582 39.8577 16.2736 39.2423C16.8889 38.627 17.7235 38.2812 18.5938 38.2812H30.7563L25.5281 33.6328C25.4113 33.5304 25.3177 33.4043 25.2535 33.2628C25.1894 33.1214 25.1562 32.9678 25.1562 32.8125C25.1562 32.6572 25.1894 32.5036 25.2535 32.3622C25.3177 32.2207 25.4113 32.0946 25.5281 31.9922L30.7563 27.3438H18.5938C14.8227 27.3438 11.2061 28.8418 8.53958 31.5083C5.87304 34.1749 4.375 37.7915 4.375 41.5625C4.375 45.3335 5.87304 48.9501 8.53958 51.6167C11.2061 54.2832 14.8227 55.7812 18.5938 55.7812H35.9516L42.1094 50.3125L35.9516 44.8438Z" fill="white"/>
<path d="M55.4098 40.7423C55.2536 40.6011 55.0592 40.5092 54.851 40.4781C54.6428 40.4469 54.4301 40.478 54.2395 40.5673C54.0474 40.6533 53.8843 40.793 53.7698 40.9696C53.6553 41.1462 53.5943 41.3521 53.5941 41.5626V44.8439H39.2441L44.4723 49.4923C44.5891 49.5947 44.6827 49.7208 44.7469 49.8623C44.811 50.0037 44.8442 50.1573 44.8442 50.3126C44.8442 50.4679 44.811 50.6215 44.7469 50.7629C44.6827 50.9044 44.5891 51.0306 44.4723 51.1329L39.2441 55.7814H53.5941V59.0626C53.5943 59.2731 53.6553 59.479 53.7698 59.6556C53.8842 59.8322 54.0474 59.9719 54.2395 60.0579C54.38 60.1228 54.533 60.1564 54.6879 60.1564C54.9537 60.1556 55.2102 60.0584 55.4098 59.8829L65.2535 51.1329C65.3703 51.0306 65.464 50.9044 65.5281 50.7629C65.5922 50.6215 65.6254 50.4679 65.6254 50.3126C65.6254 50.1573 65.5922 50.0037 65.5281 49.8623C65.464 49.7208 65.3703 49.5947 65.2535 49.4923L55.4098 40.7423Z" fill="white"/>
</svg>
