<svg width="70" height="70" viewBox="0 0 70 70" fill="none" xmlns="http://www.w3.org/2000/svg">
<path d="M35 26.25C35.3033 26.25 35.6033 26.1869 35.8809 26.0648C36.1585 25.9428 36.4078 25.7643 36.6128 25.5408L48.6441 12.4158C49.0017 12.0254 49.2056 11.5186 49.218 10.9893C49.2304 10.46 49.0503 9.94417 48.7113 9.5375L43.2426 2.975C43.0374 2.72855 42.7806 2.53025 42.4902 2.39416C42.1999 2.25807 41.8831 2.18751 41.5625 2.1875H28.4375C28.1167 2.18756 27.7999 2.25813 27.5095 2.39422C27.2191 2.53031 26.9621 2.72858 26.7568 2.975L21.2881 9.5375C20.9492 9.94432 20.7693 10.4603 20.7819 10.9896C20.7944 11.5189 20.9986 12.0258 21.3564 12.416L33.3877 25.541C33.5926 25.7645 33.8418 25.9429 34.1193 26.065C34.3969 26.187 34.6968 26.25 35 26.25ZM32.8125 18.4388L27.9414 13.125H32.8125V18.4388ZM37.1875 13.125H42.0589L37.1875 18.4389V13.125ZM42.3609 8.75H37.1875V6.5625H40.5382L42.3609 8.75ZM29.4618 6.5625H32.8125V8.75H27.639L29.4618 6.5625Z" fill="white"/>
<path d="M51.4062 29.5312C51.9864 29.5312 52.5428 29.3008 52.953 28.8905C53.3633 28.4803 53.5938 27.9239 53.5938 27.3438V26.25H54.6875C55.2677 26.25 55.8241 26.0195 56.2343 25.6093C56.6445 25.1991 56.875 24.6427 56.875 24.0625C56.875 23.4823 56.6445 22.9259 56.2343 22.5157C55.8241 22.1055 55.2677 21.875 54.6875 21.875H53.5938V20.7812C53.5938 20.2011 53.3633 19.6447 52.953 19.2345C52.5428 18.8242 51.9864 18.5938 51.4062 18.5938C50.8261 18.5938 50.2697 18.8242 49.8595 19.2345C49.4492 19.6447 49.2188 20.2011 49.2188 20.7812V21.875H48.125C47.5448 21.875 46.9884 22.1055 46.5782 22.5157C46.168 22.9259 45.9375 23.4823 45.9375 24.0625C45.9375 24.6427 46.168 25.1991 46.5782 25.6093C46.9884 26.0195 47.5448 26.25 48.125 26.25H49.2188V27.3438C49.2188 27.9239 49.4492 28.4803 49.8595 28.8905C50.2697 29.3008 50.8261 29.5312 51.4062 29.5312Z" fill="white"/>
<path d="M17.5 24.0625C18.0802 24.0625 18.6366 23.832 19.0468 23.4218C19.457 23.0116 19.6875 22.4552 19.6875 21.875V20.7812H20.7812C21.3614 20.7812 21.9178 20.5508 22.328 20.1405C22.7383 19.7303 22.9688 19.1739 22.9688 18.5938C22.9688 18.0136 22.7383 17.4572 22.328 17.047C21.9178 16.6367 21.3614 16.4062 20.7812 16.4062H19.6875V15.3125C19.6875 14.7323 19.457 14.1759 19.0468 13.7657C18.6366 13.3555 18.0802 13.125 17.5 13.125C16.9198 13.125 16.3634 13.3555 15.9532 13.7657C15.543 14.1759 15.3125 14.7323 15.3125 15.3125V16.4062H14.2188C13.6386 16.4062 13.0822 16.6367 12.672 17.047C12.2617 17.4572 12.0312 18.0136 12.0312 18.5938C12.0312 19.1739 12.2617 19.7303 12.672 20.1405C13.0822 20.5508 13.6386 20.7812 14.2188 20.7812H15.3125V21.875C15.3125 22.4552 15.543 23.0116 15.9532 23.4218C16.3634 23.832 16.9198 24.0625 17.5 24.0625Z" fill="white"/>
<path d="M62.5625 39.8125L53.8125 33.25C53.4334 32.9669 52.9732 32.8135 52.5 32.8125H17.5C17.0269 32.8135 16.5666 32.9669 16.1875 33.25L7.43751 39.8125C6.97338 40.1606 6.66654 40.6788 6.58449 41.2531C6.50245 41.8275 6.65191 42.4109 7.00001 42.875C7.34811 43.3391 7.86632 43.646 8.44065 43.728C9.01498 43.8101 9.59838 43.6606 10.0625 43.3125L15.3125 39.375V65.625C15.3142 66.2046 15.5452 66.76 15.9551 67.1699C16.365 67.5798 16.9204 67.8108 17.5 67.8125H52.5C53.0796 67.8108 53.6351 67.5798 54.0449 67.1699C54.4548 66.76 54.6858 66.2046 54.6875 65.625V39.375L59.9375 43.3125C60.1673 43.4849 60.4288 43.6103 60.7071 43.6816C60.9854 43.7529 61.275 43.7686 61.5594 43.728C61.8438 43.6874 62.1173 43.5911 62.3645 43.4448C62.6117 43.2984 62.8276 43.1048 63 42.875C63.1724 42.6452 63.2978 42.3837 63.3691 42.1054C63.4404 41.8271 63.4562 41.5375 63.4155 41.2531C63.3749 40.9688 63.2787 40.6952 63.1323 40.448C62.9859 40.2008 62.7923 39.9849 62.5625 39.8125ZM28.4375 63.4375V37.1875H32.8125V63.4375H28.4375ZM41.5625 63.4375H37.1875V37.1875H41.5625V63.4375Z" fill="white"/>
</svg>
