<svg width="70" height="70" viewBox="0 0 70 70" fill="none" xmlns="http://www.w3.org/2000/svg">
<path fill-rule="evenodd" clip-rule="evenodd" d="M24.0188 31.5474C27.1871 27.4237 32.1683 24.7655 37.7696 24.7655C46.7904 24.7655 54.2005 31.6601 55.0217 40.4665H34.942C32.6412 36.2165 28.7257 32.9702 24.0188 31.5474ZM29.7588 12.1402C29.7588 7.71759 33.3443 4.13208 37.7696 4.13208C42.1921 4.13208 45.7776 7.71759 45.7776 12.1402C45.7776 16.5655 42.1921 20.151 37.7696 20.151C33.3443 20.151 29.7588 16.5655 29.7588 12.1402ZM18.6527 32.6795C25.3599 32.6795 31.1391 36.6582 33.7538 42.388H60.6334C60.813 42.388 60.9854 42.4585 61.1137 42.584C62.0519 43.5034 66.0283 47.3995 67.4407 48.7834C67.5724 48.9125 67.6467 49.0891 67.6467 49.2736C67.6467 49.458 67.5724 49.6347 67.4407 49.7637C66.0283 51.1477 62.0519 55.0438 61.1137 55.9631C60.9854 56.0887 60.813 56.1591 60.6334 56.1591C59.9221 56.1591 58.0532 56.1591 57.3497 56.1591C57.1743 56.1591 57.0056 56.2262 56.8782 56.3467C56.2881 56.9047 54.5311 58.5661 53.6467 59.4026C53.5106 59.5312 53.328 59.5987 53.1409 59.5894C52.9539 59.58 52.7789 59.4948 52.6564 59.3532C51.8891 58.4675 50.3718 56.7153 49.5687 55.7881C49.4371 55.6362 49.2455 55.5496 49.0445 55.5511C48.8436 55.5527 48.6533 55.6423 48.5242 55.7962C47.667 56.8179 45.9651 58.8467 45.1338 59.8374C45.0105 59.9844 44.8312 60.0731 44.6396 60.0818C44.4478 60.0908 44.2613 60.0188 44.125 59.8838C43.17 58.9376 41.2001 56.9854 40.5671 56.358C40.4385 56.2306 40.2649 56.1591 40.084 56.1591C38.8211 56.1591 33.7538 56.1591 33.7538 56.1591C31.1391 61.8889 25.3599 65.8677 18.6527 65.8677C9.48765 65.8677 2.05859 58.4386 2.05859 49.2736C2.05859 40.1085 9.48765 32.6795 18.6527 32.6795ZM12.1195 45.7997C9.91095 45.7997 8.11922 47.355 8.12128 49.2736C8.11922 51.1921 9.91095 52.7475 12.1195 52.7475C14.3281 52.7475 16.1198 51.1921 16.1176 49.2736C16.1198 47.355 14.3281 45.7997 12.1195 45.7997Z" fill="white"/>
</svg>
