<svg width="70" height="70" viewBox="0 0 70 70" fill="none" xmlns="http://www.w3.org/2000/svg">
<g clip-path="url(#clip0_1018_618)">
<path d="M34.9813 19.8279C25.288 19.8279 17.4912 27.6237 17.4912 37.3171C17.4912 50.3839 26.7631 51.858 27.1845 58.8128L27.606 62.8166C28.2382 66.1882 31.1883 68.9276 34.7706 68.9276C38.3539 68.9276 41.304 66.3989 41.9362 62.8166L42.3567 58.8128C42.9889 51.858 52.0509 50.1712 52.0509 37.3171C52.4696 27.6237 44.6737 19.8279 34.9813 19.8279ZM34.9813 59.8655C35.6135 56.0725 32.8741 46.5908 34.9813 40.0565C30.9776 46.7997 33.2955 57.1261 32.8741 56.7018C28.0274 50.1712 23.1808 40.0565 34.9813 28.8881C38.9832 34.7874 48.4668 46.1675 34.9813 59.8655Z" fill="white"/>
<path d="M13.4854 35.842C13.4854 34.9991 12.8532 34.3669 12.0103 34.3669H1.47413C0.631232 34.3669 0 35.0001 0 35.842C0 36.684 0.632173 37.3152 1.47507 37.3152H12.0113C12.8542 37.5278 13.4854 36.6849 13.4854 35.842Z" fill="white"/>
<path d="M68.4864 34.3669H57.9511C57.1082 34.3669 56.4761 35.0001 56.4761 35.842C56.4761 36.684 57.1082 37.3152 57.9511 37.3152H68.4864C69.3293 37.3152 69.9596 36.683 69.9596 35.842C70.1713 35.0001 69.5391 34.3669 68.4864 34.3669Z" fill="white"/>
<path d="M14.3281 45.9568L5.05628 51.2268C4.21338 51.6473 4.00265 52.7 4.4241 53.3321C4.63483 53.7536 5.267 54.175 5.68845 54.175C5.89917 54.175 6.32062 54.175 6.53135 53.9624L15.8032 48.6943C16.6461 48.2738 16.8568 47.2193 16.4354 46.5871C16.0139 45.9568 14.9622 45.5353 14.3281 45.9568Z" fill="white"/>
<path d="M54.7885 25.9389C54.9983 25.9389 55.4207 25.9389 55.6314 25.7273L64.9014 20.4592C65.7443 20.0377 65.9532 18.9841 65.5336 18.3519C65.1131 17.509 64.0595 17.2983 63.4264 17.7198L54.1564 22.9879C53.3135 23.4093 53.1028 24.4629 53.5242 25.0951C53.734 25.7273 54.3662 25.9389 54.7885 25.9389Z" fill="white"/>
<path d="M52.4696 5.49783C51.6267 5.07639 50.7829 5.28711 50.3623 6.13001L45.0942 15.4019C44.6737 16.2448 44.8807 17.0867 45.7264 17.5072C45.9381 17.7189 46.1469 17.7189 46.5693 17.7189C47.2024 17.7189 47.622 17.5072 47.8346 16.877L53.1036 7.60602C53.5242 6.97385 53.3134 5.91928 52.4696 5.49783Z" fill="white"/>
<path d="M34.9814 14.5589C35.8243 14.5589 36.4555 13.9267 36.4555 13.0848V2.54856C36.4555 1.70566 35.8234 1.07349 34.9814 1.07349C34.1385 1.07349 33.5063 1.70566 33.5063 2.54856V13.0838C33.5063 13.7169 34.1385 14.5589 34.9814 14.5589Z" fill="white"/>
<path d="M23.3911 17.508C23.6019 17.508 24.0233 17.508 24.234 17.2973C25.0769 16.8758 25.2876 15.8231 24.8662 15.19L19.5981 5.92005C19.1766 5.07715 18.123 4.86642 17.4908 5.28787C16.6479 5.70838 16.4372 6.76106 16.8587 7.39323L22.1268 16.6651C22.3375 17.2992 22.9687 17.508 23.3911 17.508Z" fill="white"/>
<path d="M64.9031 51.4356L55.6322 46.1675C54.7893 45.747 53.9474 45.9549 53.525 46.7997C53.1045 47.6426 53.3133 48.4864 54.1571 48.906L63.4281 54.175C63.6397 54.3867 63.8486 54.3867 64.271 54.3867C64.9031 54.3867 65.3237 54.175 65.5353 53.5438C65.9558 52.7 65.5353 51.858 64.9031 51.4356Z" fill="white"/>
<path d="M15.8052 22.9878L6.5333 17.7197C5.6904 17.2983 4.84751 17.5081 4.42606 18.3519C4.00461 19.1948 4.21533 20.0377 5.05823 20.4591L14.3301 25.7272C14.5408 25.9389 14.7515 25.9389 15.173 25.9389C15.8052 25.9389 16.2266 25.7272 16.4373 25.096C16.8569 24.4629 16.6481 23.4093 15.8052 22.9878Z" fill="white"/>
</g>
<defs>
<clipPath id="clip0_1018_618">
<rect width="70" height="70" fill="white"/>
</clipPath>
</defs>
</svg>
