<svg width="70" height="70" viewBox="0 0 70 70" fill="none" xmlns="http://www.w3.org/2000/svg">
<path d="M42.1287 58.7377C42.5837 58.8908 43.0748 58.6469 43.228 58.1941L48.5458 42.4693C47.9595 42.4015 47.3744 42.3205 46.7958 42.2297L41.5851 57.6407C41.5108 57.8594 41.5272 58.0935 41.6289 58.3002C41.7317 58.508 41.9089 58.6644 42.1287 58.7377Z" fill="white"/>
<path d="M27.8733 58.7377C28.091 58.6633 28.2682 58.5091 28.371 58.3013C28.4738 58.0935 28.4891 57.8605 28.4158 57.6418L23.2041 42.2297C22.6255 42.3205 22.0404 42.4025 21.4541 42.4693L26.7719 58.1941C26.9261 58.6469 27.4183 58.8919 27.8733 58.7377Z" fill="white"/>
<path d="M52.6284 31.2409C49.1886 33.3201 44.1092 34.7441 38.2172 35.1302C38.0903 35.5841 38.0039 36.0457 38.0039 36.5193C38.0039 37.1668 38.4108 37.7443 39.0156 37.9565C41.5477 38.8479 43.9856 39.5129 46.2606 39.9329C47.5283 40.1615 48.7894 40.3266 50.1117 40.4371C51.1792 40.5224 52.2238 40.5476 53.2136 40.5148C54.6038 40.483 55.8933 40.3573 57.0559 40.1407C57.6422 40.0477 58.2066 39.9263 58.8103 39.7655C61.5677 39.0349 63.6086 36.6155 63.8875 33.7466L65.6178 15.6298C65.6244 15.283 65.5434 15.0424 65.3958 14.8477C65.1038 14.4594 64.7177 14.3949 64.5131 14.3916C64.1566 14.3807 63.8241 14.5415 63.5955 14.8226C61.5939 17.2759 59.8778 23.0104 58.7644 30.9696C58.2798 34.3963 58.0928 36.9754 58.0917 37.0005C58.0491 37.6032 57.5328 38.0516 56.9225 38.0134C56.3198 37.9696 55.867 37.4468 55.9097 36.8452C55.9173 36.7479 56.0694 34.6599 56.4588 31.6969C55.2775 31.488 53.9934 31.336 52.6273 31.2398L52.6284 31.2409Z" fill="white"/>
<path d="M34.9998 27.8885C46.1236 27.8885 55.1412 24.1561 55.1412 19.5519C55.1412 14.9477 46.1236 11.2153 34.9998 11.2153C23.876 11.2153 14.8584 14.9477 14.8584 19.5519C14.8584 24.1561 23.876 27.8885 34.9998 27.8885Z" fill="white"/>
<path d="M13.0769 38.0145C12.4797 38.0549 11.9514 37.6043 11.9077 37.0016C11.9066 36.9765 11.7195 34.3974 11.235 30.9718C10.1216 23.0115 8.40547 17.2769 6.40391 14.8226C6.17531 14.5415 5.84719 14.3807 5.48625 14.3916C5.28172 14.396 4.89562 14.4594 4.60578 14.8455C4.45594 15.0435 4.375 15.283 4.375 15.527L6.11297 33.7488C6.39188 36.6166 8.43609 39.0349 11.2 39.7655C11.8256 39.9318 12.3703 40.0488 12.915 40.1352C14.1072 40.3573 15.3967 40.482 16.7738 40.5148C17.7778 40.5498 18.8212 40.5224 19.8931 40.4371C21.2111 40.3255 22.4722 40.1615 23.7442 39.9318C26.0148 39.5129 28.4517 38.8479 30.9837 37.9565C31.5897 37.7443 31.9955 37.1657 31.9955 36.5193C31.9955 36.0512 31.9102 35.5885 31.7866 35.1302C25.8934 34.7452 20.8108 33.3201 17.3709 31.2409C16.0048 31.3371 14.7208 31.4891 13.5395 31.698C13.9289 34.6599 14.082 36.749 14.0886 36.8463C14.1312 37.449 13.6784 37.9718 13.0758 38.0145H13.0769Z" fill="white"/>
<path d="M14.8584 24.7253C14.8606 28.7503 22.9532 33.0597 34.9987 33.0597C47.0442 33.0597 55.1368 28.7525 55.1412 24.7286C55.1412 24.7286 55.1412 24.7264 55.1412 24.7253V24.1423C51.5811 27.6795 44.0036 30.0759 34.9998 30.0759C25.9961 30.0759 18.4186 27.6795 14.8584 24.1423V24.7253Z" fill="white"/>
<path d="M61.1128 58.7377C61.5645 58.5846 61.8084 58.0935 61.6553 57.6418L56.5103 42.4255C55.9437 42.5065 55.3597 42.571 54.7461 42.6158L60.0125 58.1952C60.1656 58.6469 60.6567 58.893 61.1128 58.7377Z" fill="white"/>
<path d="M8.88753 58.7376C9.10628 58.812 9.34143 58.7967 9.54925 58.6928C9.75706 58.5888 9.91347 58.4128 9.98675 58.194L15.2532 42.6146C14.6439 42.5709 14.0588 42.5053 13.4889 42.4243L8.34393 57.6406C8.26956 57.8593 8.28597 58.0934 8.38768 58.3001C8.4905 58.5079 8.66769 58.6643 8.88753 58.7376Z" fill="white"/>
</svg>
